<?xml version="1.0" encoding="UTF-8"?>
<svg version="1.1" xmlns="http://www.w3.org/2000/svg" width="294" height="319">
<path d="M0 0 C1.12192245 -0.00175232 2.24384491 -0.00350464 3.39976501 -0.00531006 C7.06690061 -0.00967155 10.73398706 -0.00681184 14.40112305 -0.00341797 C16.96795155 -0.00409241 19.53477999 -0.00506361 22.10160828 -0.00631714 C27.4616259 -0.00778618 32.82162537 -0.00576109 38.18164062 -0.00097656 C44.36314413 0.0044778 50.54461471 0.00269033 56.72611743 -0.00280297 C62.70086641 -0.00789813 68.67559937 -0.0073462 74.65035057 -0.00442123 C77.18166292 -0.00375525 79.71297612 -0.0045689 82.24428749 -0.00690079 C85.77876636 -0.00944388 89.31318208 -0.00556391 92.84765625 0 C93.88832245 -0.00202423 94.92898865 -0.00404846 96.00119019 -0.00613403 C109.78024076 0.03399154 109.78024076 0.03399154 114.0378418 3.56689453 C116.1003418 6.12939453 116.1003418 6.12939453 116.1003418 8.12939453 C117.0903418 8.45939453 118.0803418 8.78939453 119.1003418 9.12939453 C122.78457853 12.52277047 125.8989192 16.28768742 129.1003418 20.12939453 C131.84249536 22.9195718 134.63687286 25.65466734 137.43237305 28.39111328 C138.59259108 29.53297759 139.7527465 30.67490552 140.9128418 31.81689453 C141.8090625 32.68797852 141.8090625 32.68797852 142.72338867 33.57666016 C144.22048852 35.05665029 145.66522911 36.58922235 147.1003418 38.12939453 C147.1003418 38.78939453 147.1003418 39.44939453 147.1003418 40.12939453 C147.67268555 40.37689453 148.2450293 40.62439453 148.8347168 40.87939453 C151.45044791 42.32255652 153.24807636 44.01155675 155.3503418 46.12939453 C156.05674805 46.83064453 156.7631543 47.53189453 157.4909668 48.25439453 C159.1003418 50.12939453 159.1003418 50.12939453 159.1003418 52.12939453 C159.7397168 52.39751953 160.3790918 52.66564453 161.0378418 52.94189453 C163.1003418 54.12939453 163.1003418 54.12939453 164.1003418 57.12939453 C165.4156759 57.83090605 166.75151771 58.49465379 168.1003418 59.12939453 C169.8503418 60.62939453 169.8503418 60.62939453 171.1003418 62.12939453 C171.1003418 62.78939453 171.1003418 63.44939453 171.1003418 64.12939453 C171.7603418 64.12939453 172.4203418 64.12939453 173.1003418 64.12939453 C173.1003418 64.78939453 173.1003418 65.44939453 173.1003418 66.12939453 C174.0903418 66.45939453 175.0803418 66.78939453 176.1003418 67.12939453 C177.85988398 68.91628711 179.39211983 70.83498732 180.97183037 72.78234863 C182.99604509 75.17021449 182.99604509 75.17021449 185.40880013 76.82897949 C189.5774765 80.04047697 192.17757098 82.99990286 192.92965317 88.27124023 C193.36410847 93.6056374 193.27208767 98.93875142 193.20141602 104.28564453 C193.20706779 106.3413225 193.21661007 108.39699289 193.22973633 110.45263672 C193.25362505 116.019243 193.22137445 121.5842321 193.17754507 127.15066528 C193.13978895 132.98405719 193.14927243 138.81739225 193.15237427 144.65087891 C193.15044941 154.44607287 193.11337726 164.2406398 193.05395508 174.03564453 C192.9856145 185.34944196 192.96628379 196.66247974 192.9747237 207.97646332 C192.98225785 218.87365582 192.96125837 229.77059409 192.92517471 240.66772461 C192.90996561 245.29910176 192.90356468 249.9303664 192.90407944 254.56176758 C192.90294617 260.01872618 192.87641986 265.4750028 192.83052063 270.9317627 C192.8175531 272.93074879 192.81296038 274.92980999 192.81749344 276.92883301 C192.85065148 296.14374865 192.85065148 296.14374865 187.1003418 303.12939453 C185.9865918 304.67626953 185.9865918 304.67626953 184.8503418 306.25439453 C179.13589193 312.22859212 174.07764045 316.9377976 165.61355114 317.26361561 C164.18885895 317.27301146 162.76412437 317.27692315 161.33940125 317.27656555 C160.5527969 317.28024224 159.76619256 317.28391893 158.95575172 317.28770703 C156.31733698 317.29872891 153.67896164 317.30258514 151.04052734 317.30639648 C149.14984004 317.31266216 147.25915397 317.31930906 145.36846924 317.3263092 C139.15800838 317.34733598 132.9475473 317.3577089 126.73706055 317.36767578 C124.59879862 317.37172357 122.46053682 317.37584049 120.32227516 317.38002586 C110.27840719 317.39907287 100.23454655 317.41330609 90.19066399 317.42163783 C78.59589408 317.431415 67.00131482 317.45774916 55.4066121 317.49813873 C46.4442865 317.52828778 37.4820156 317.54310548 28.51964027 317.54641885 C23.16667553 317.54877031 17.81391461 317.55774373 12.46100426 317.58288002 C7.42537023 317.60614509 2.39007446 317.61040022 -2.64559937 317.60011864 C-4.49227714 317.59962282 -6.33897148 317.60595675 -8.18559837 317.61967468 C-10.71005952 317.63737677 -13.23330445 317.63029632 -15.75776672 317.61714172 C-16.48560138 317.62811097 -17.21343603 317.63908022 -17.96332628 317.65038186 C-23.44754373 317.5815579 -26.43838122 316.06298254 -30.8996582 313.12939453 C-31.63055664 312.66275391 -32.36145508 312.19611328 -33.11450195 311.71533203 C-34.74515756 310.56906618 -36.32456893 309.35089234 -37.8996582 308.12939453 C-37.8996582 307.46939453 -37.8996582 306.80939453 -37.8996582 306.12939453 C-38.5596582 306.12939453 -39.2196582 306.12939453 -39.8996582 306.12939453 C-40.88449928 304.3825816 -41.86232007 302.63180943 -42.8371582 300.87939453 C-43.38243164 299.90486328 -43.92770508 298.93033203 -44.48950195 297.92626953 C-46.44795342 294.04191703 -47.02427413 290.88583181 -47.03108597 286.55776787 C-47.03492711 285.63983763 -47.03876826 284.72190738 -47.0427258 283.77616107 C-47.04185932 282.77131424 -47.04099284 281.7664674 -47.0401001 280.73117065 C-47.04307122 279.66083434 -47.04604234 278.59049803 -47.0491035 277.48772728 C-47.05779867 273.88894576 -47.05929945 270.29019746 -47.06079102 266.69140625 C-47.06541865 264.11594064 -47.07044324 261.54047572 -47.07583618 258.9650116 C-47.08941414 251.95860386 -47.09544365 244.95220184 -47.09984684 237.94578314 C-47.1026107 233.56898852 -47.10684837 229.19219611 -47.11135101 224.81540298 C-47.12354398 212.6923251 -47.13384259 200.56924897 -47.1372261 188.44616508 C-47.13744567 187.67033943 -47.13766524 186.89451378 -47.13789146 186.09517825 C-47.13810973 185.31751393 -47.13832801 184.5398496 -47.1385529 183.73861969 C-47.13899637 182.16282328 -47.13944293 180.58702687 -47.13989258 179.01123047 C-47.14022472 177.83876061 -47.14022472 177.83876061 -47.14056358 176.64260449 C-47.14450927 163.98489574 -47.16195617 151.32724464 -47.1852521 138.66955815 C-47.20898826 125.66745826 -47.22142902 112.66538726 -47.22259402 99.66326535 C-47.22350962 92.36579888 -47.22923259 85.0684075 -47.24741364 77.77096176 C-47.26446146 70.90422383 -47.26605029 64.03763038 -47.25727463 57.17087746 C-47.25650416 54.65303097 -47.26084822 52.13517683 -47.27073288 49.61734962 C-47.28345405 46.17457071 -47.27757407 42.73229594 -47.26715088 39.28952026 C-47.27520728 38.29805776 -47.28326369 37.30659525 -47.29156423 36.28508842 C-47.21918792 26.03160816 -44.89815203 17.77811517 -37.8996582 10.12939453 C-26.78057079 -0.5062543 -14.64758195 -0.02877127 0 0 Z " fill="#FDFDFD" transform="translate(71.899658203125,0.87060546875)"/>
<path d="M0 0 C1.12192245 -0.00175232 2.24384491 -0.00350464 3.39976501 -0.00531006 C7.06690061 -0.00967155 10.73398706 -0.00681184 14.40112305 -0.00341797 C16.96795155 -0.00409241 19.53477999 -0.00506361 22.10160828 -0.00631714 C27.4616259 -0.00778618 32.82162537 -0.00576109 38.18164062 -0.00097656 C44.36314413 0.0044778 50.54461471 0.00269033 56.72611743 -0.00280297 C62.70086641 -0.00789813 68.67559937 -0.0073462 74.65035057 -0.00442123 C77.18166292 -0.00375525 79.71297612 -0.0045689 82.24428749 -0.00690079 C85.77876636 -0.00944388 89.31318208 -0.00556391 92.84765625 0 C93.88832245 -0.00202423 94.92898865 -0.00404846 96.00119019 -0.00613403 C109.78024076 0.03399154 109.78024076 0.03399154 114.0378418 3.56689453 C116.1003418 6.12939453 116.1003418 6.12939453 116.1003418 8.12939453 C117.0903418 8.45939453 118.0803418 8.78939453 119.1003418 9.12939453 C122.78457853 12.52277047 125.8989192 16.28768742 129.1003418 20.12939453 C131.84249536 22.9195718 134.63687286 25.65466734 137.43237305 28.39111328 C138.59259108 29.53297759 139.7527465 30.67490552 140.9128418 31.81689453 C141.8090625 32.68797852 141.8090625 32.68797852 142.72338867 33.57666016 C144.22048852 35.05665029 145.66522911 36.58922235 147.1003418 38.12939453 C147.1003418 38.78939453 147.1003418 39.44939453 147.1003418 40.12939453 C147.67268555 40.37689453 148.2450293 40.62439453 148.8347168 40.87939453 C151.45044791 42.32255652 153.24807636 44.01155675 155.3503418 46.12939453 C156.05674805 46.83064453 156.7631543 47.53189453 157.4909668 48.25439453 C159.1003418 50.12939453 159.1003418 50.12939453 159.1003418 52.12939453 C159.7397168 52.39751953 160.3790918 52.66564453 161.0378418 52.94189453 C163.1003418 54.12939453 163.1003418 54.12939453 164.1003418 57.12939453 C165.4156759 57.83090605 166.75151771 58.49465379 168.1003418 59.12939453 C169.8503418 60.62939453 169.8503418 60.62939453 171.1003418 62.12939453 C171.1003418 62.78939453 171.1003418 63.44939453 171.1003418 64.12939453 C171.7603418 64.12939453 172.4203418 64.12939453 173.1003418 64.12939453 C173.1003418 64.78939453 173.1003418 65.44939453 173.1003418 66.12939453 C174.0903418 66.45939453 175.0803418 66.78939453 176.1003418 67.12939453 C177.85988398 68.91628711 179.39211983 70.83498732 180.97183037 72.78234863 C182.99604509 75.17021449 182.99604509 75.17021449 185.40880013 76.82897949 C189.5774765 80.04047697 192.17757098 82.99990286 192.92965317 88.27124023 C193.36410847 93.6056374 193.27208767 98.93875142 193.20141602 104.28564453 C193.20706779 106.3413225 193.21661007 108.39699289 193.22973633 110.45263672 C193.25362505 116.019243 193.22137445 121.5842321 193.17754507 127.15066528 C193.13978895 132.98405719 193.14927243 138.81739225 193.15237427 144.65087891 C193.15044941 154.44607287 193.11337726 164.2406398 193.05395508 174.03564453 C192.9856145 185.34944196 192.96628379 196.66247974 192.9747237 207.97646332 C192.98225785 218.87365582 192.96125837 229.77059409 192.92517471 240.66772461 C192.90996561 245.29910176 192.90356468 249.9303664 192.90407944 254.56176758 C192.90294617 260.01872618 192.87641986 265.4750028 192.83052063 270.9317627 C192.8175531 272.93074879 192.81296038 274.92980999 192.81749344 276.92883301 C192.85065148 296.14374865 192.85065148 296.14374865 187.1003418 303.12939453 C185.9865918 304.67626953 185.9865918 304.67626953 184.8503418 306.25439453 C179.13589193 312.22859212 174.07764045 316.9377976 165.61355114 317.26361561 C164.18885895 317.27301146 162.76412437 317.27692315 161.33940125 317.27656555 C160.5527969 317.28024224 159.76619256 317.28391893 158.95575172 317.28770703 C156.31733698 317.29872891 153.67896164 317.30258514 151.04052734 317.30639648 C149.14984004 317.31266216 147.25915397 317.31930906 145.36846924 317.3263092 C139.15800838 317.34733598 132.9475473 317.3577089 126.73706055 317.36767578 C124.59879862 317.37172357 122.46053682 317.37584049 120.32227516 317.38002586 C110.27840719 317.39907287 100.23454655 317.41330609 90.19066399 317.42163783 C78.59589408 317.431415 67.00131482 317.45774916 55.4066121 317.49813873 C46.4442865 317.52828778 37.4820156 317.54310548 28.51964027 317.54641885 C23.16667553 317.54877031 17.81391461 317.55774373 12.46100426 317.58288002 C7.42537023 317.60614509 2.39007446 317.61040022 -2.64559937 317.60011864 C-4.49227714 317.59962282 -6.33897148 317.60595675 -8.18559837 317.61967468 C-10.71005952 317.63737677 -13.23330445 317.63029632 -15.75776672 317.61714172 C-16.48560138 317.62811097 -17.21343603 317.63908022 -17.96332628 317.65038186 C-23.44754373 317.5815579 -26.43838122 316.06298254 -30.8996582 313.12939453 C-31.63055664 312.66275391 -32.36145508 312.19611328 -33.11450195 311.71533203 C-34.74515756 310.56906618 -36.32456893 309.35089234 -37.8996582 308.12939453 C-37.8996582 307.46939453 -37.8996582 306.80939453 -37.8996582 306.12939453 C-38.5596582 306.12939453 -39.2196582 306.12939453 -39.8996582 306.12939453 C-40.88449928 304.3825816 -41.86232007 302.63180943 -42.8371582 300.87939453 C-43.38243164 299.90486328 -43.92770508 298.93033203 -44.48950195 297.92626953 C-46.44795342 294.04191703 -47.02427413 290.88583181 -47.03108597 286.55776787 C-47.03492711 285.63983763 -47.03876826 284.72190738 -47.0427258 283.77616107 C-47.04185932 282.77131424 -47.04099284 281.7664674 -47.0401001 280.73117065 C-47.04307122 279.66083434 -47.04604234 278.59049803 -47.0491035 277.48772728 C-47.05779867 273.88894576 -47.05929945 270.29019746 -47.06079102 266.69140625 C-47.06541865 264.11594064 -47.07044324 261.54047572 -47.07583618 258.9650116 C-47.08941414 251.95860386 -47.09544365 244.95220184 -47.09984684 237.94578314 C-47.1026107 233.56898852 -47.10684837 229.19219611 -47.11135101 224.81540298 C-47.12354398 212.6923251 -47.13384259 200.56924897 -47.1372261 188.44616508 C-47.13744567 187.67033943 -47.13766524 186.89451378 -47.13789146 186.09517825 C-47.13810973 185.31751393 -47.13832801 184.5398496 -47.1385529 183.73861969 C-47.13899637 182.16282328 -47.13944293 180.58702687 -47.13989258 179.01123047 C-47.14022472 177.83876061 -47.14022472 177.83876061 -47.14056358 176.64260449 C-47.14450927 163.98489574 -47.16195617 151.32724464 -47.1852521 138.66955815 C-47.20898826 125.66745826 -47.22142902 112.66538726 -47.22259402 99.66326535 C-47.22350962 92.36579888 -47.22923259 85.0684075 -47.24741364 77.77096176 C-47.26446146 70.90422383 -47.26605029 64.03763038 -47.25727463 57.17087746 C-47.25650416 54.65303097 -47.26084822 52.13517683 -47.27073288 49.61734962 C-47.28345405 46.17457071 -47.27757407 42.73229594 -47.26715088 39.28952026 C-47.27520728 38.29805776 -47.28326369 37.30659525 -47.29156423 36.28508842 C-47.21918792 26.03160816 -44.89815203 17.77811517 -37.8996582 10.12939453 C-26.78057079 -0.5062543 -14.64758195 -0.02877127 0 0 Z M-33.8996582 17.19189453 C-34.4359082 17.84287109 -34.9721582 18.49384766 -35.5246582 19.16455078 C-38.02296432 22.73457344 -39.14921767 25.36376022 -39.15692711 29.75345993 C-39.163376 30.68307376 -39.16982489 31.61268758 -39.17646921 32.57047153 C-39.173372 33.58835545 -39.1702748 34.60623937 -39.16708374 35.65496826 C-39.17161485 36.73896636 -39.17614597 37.82296446 -39.18081439 38.93981099 C-39.19350975 42.58475414 -39.19183468 46.22954886 -39.19018555 49.87451172 C-39.19616763 52.48277988 -39.20297243 55.09104626 -39.21054077 57.6993103 C-39.22715754 64.05688158 -39.23265065 70.41441578 -39.23376553 76.77200696 C-39.23471582 81.94061306 -39.23882521 87.10920692 -39.24516678 92.27780914 C-39.26278221 106.93344001 -39.27200535 121.58904158 -39.27050583 136.24468312 C-39.27042592 137.03486054 -39.27034601 137.82503796 -39.27026367 138.63916016 C-39.27018191 139.4303032 -39.27010015 140.22144624 -39.27001591 141.03656331 C-39.26920326 153.85407698 -39.28833482 166.67147306 -39.31654041 179.48895273 C-39.3452766 192.65151082 -39.35908025 205.81401158 -39.35735285 218.97660184 C-39.35668913 226.36568493 -39.36217335 233.75464482 -39.38370895 241.14369965 C-39.40383648 248.0941911 -39.40323945 255.04441836 -39.38867569 261.99492264 C-39.38658209 264.54586034 -39.39132115 267.09681418 -39.40339661 269.64772415 C-39.4188163 273.13075179 -39.4095613 276.6128782 -39.39413452 280.09588623 C-39.40442165 281.10484727 -39.41470877 282.1138083 -39.42530763 283.15334392 C-39.34813393 291.04092418 -37.32491472 297.31368945 -31.5871582 302.94189453 C-25.23138491 308.92941487 -18.12030849 310.24898793 -9.61447144 310.27656555 C-8.87898642 310.28024224 -8.1435014 310.28391893 -7.38572896 310.28770703 C-4.9201501 310.29872378 -2.45461343 310.30258431 0.01098633 310.30639648 C1.77858107 310.31266272 3.54617449 310.31930966 5.31376648 310.3263092 C11.12021978 310.34733529 16.9266733 310.35771114 22.7331543 310.36767578 C24.73390593 310.37172406 26.73465743 310.37584101 28.73540878 310.38002586 C38.1369578 310.39907538 47.53849899 310.41330618 56.9400636 310.42163783 C67.78261286 310.43140574 78.62495774 310.45771467 89.467435 310.49813873 C97.85401617 310.52833032 106.24053886 310.54310965 114.6271733 310.54641885 C119.63315457 310.5487661 124.63891741 310.55768423 129.64484024 310.58288002 C134.35792539 310.6062186 139.07064921 310.61037074 143.78377724 310.60011864 C145.5082539 310.59962455 147.23274871 310.60590729 148.95717049 310.61967468 C159.90664743 310.70216168 169.61864005 310.56771477 178.0378418 302.69189453 C184.22142241 295.86813145 185.25460633 290.21486136 185.22732544 281.16986084 C185.22888543 280.37408512 185.23044542 279.57830941 185.23205268 278.75841928 C185.23603739 276.09527494 185.23288287 273.43218772 185.22973633 270.76904297 C185.23109144 268.85862189 185.232872 266.94820108 185.23504639 265.03778076 C185.23960632 259.85221815 185.23783738 254.66667544 185.2346673 249.48111248 C185.23213776 244.06034478 185.23448277 238.6395788 185.23605347 233.21881104 C185.2378728 224.11966648 185.23547439 215.02053004 185.23071289 205.92138672 C185.22526419 195.38704522 185.22703829 184.85272306 185.2325393 174.31838202 C185.23706936 165.28309454 185.2377217 156.2478129 185.23510063 147.21252465 C185.23353811 141.81178231 185.23334354 136.41104908 185.23663712 131.01030731 C185.23951451 125.93783405 185.2375426 120.86538588 185.23174286 115.79291534 C185.23041483 113.92599021 185.2308101 112.05906299 185.23300552 110.19213867 C185.23571518 107.65506132 185.23233827 105.11806571 185.22732544 102.58099365 C185.22955616 101.83247312 185.23178688 101.08395259 185.2340852 100.31274962 C185.52064078 96.93485056 185.52064078 96.93485056 184.1003418 94.12939453 C182.11798151 94.0266794 180.13198279 93.99366985 178.14697266 93.98754883 C176.87152084 93.98051437 175.59606903 93.97347992 174.28196716 93.9662323 C173.59537962 93.96441641 172.90879208 93.96260052 172.20139885 93.9607296 C170.05250634 93.95357104 167.90384312 93.93790582 165.75502014 93.91938782 C159.64335433 93.86691498 153.53180767 93.81901702 147.41992188 93.8034668 C143.68376766 93.79333704 139.94818087 93.76387862 136.21225166 93.72214699 C134.79266228 93.70989294 133.37299248 93.70470545 131.95335197 93.70694542 C122.5799494 93.71808682 116.1611972 93.2579871 108.7253418 87.19189453 C105.24688786 82.77693376 104.84373782 78.68547929 104.79736328 73.16772461 C104.78892395 72.48745712 104.78048462 71.80718964 104.77178955 71.10630798 C104.74611659 68.87050639 104.73389807 66.63483649 104.72143555 64.39892578 C104.7052535 62.84143539 104.68807276 61.28395508 104.66993713 59.72648621 C104.62433697 55.63547418 104.58948216 51.54444859 104.55773926 47.45330811 C104.505775 40.89449374 104.44078375 34.33582711 104.369524 27.77719688 C104.34666985 25.48492633 104.33041602 23.19267472 104.31480408 20.90034485 C104.30140101 19.50118803 104.28778653 18.10203322 104.27392578 16.70288086 C104.26441391 15.47886063 104.25490204 14.25484039 104.24510193 12.99372864 C104.29529843 10.18472624 104.29529843 10.18472624 103.1003418 8.12939453 C87.23590971 8.01234691 71.37159512 7.92430197 55.50683784 7.87033367 C48.13974659 7.84460384 40.77292438 7.80955424 33.40600586 7.75219727 C26.98142872 7.70220117 20.55704652 7.67006559 14.13228023 7.65895206 C10.73352146 7.65246041 7.33532013 7.63731489 3.93674088 7.60074425 C0.13303163 7.5643144 -3.66953233 7.55945536 -7.47338867 7.56176758 C-8.58757675 7.5437912 -9.70176483 7.52581482 -10.84971619 7.5072937 C-19.77723343 7.56580655 -28.12091373 9.92512336 -33.8996582 17.19189453 Z " fill="#232323" transform="translate(71.899658203125,0.87060546875)"/>
<path d="M0 0 C1.10828168 0.94251204 2.21549425 1.8862813 3.32226562 2.83056641 C3.93896118 3.3559903 4.55565674 3.88141418 5.19104004 4.42276001 C7.73271888 6.63886075 10.11949957 8.9874981 12.5 11.375 C13.3765625 12.24898437 14.253125 13.12296875 15.15625 14.0234375 C17.20434332 16.12209193 19.12413634 18.29735227 21.02636719 20.52856445 C25.59000093 25.75852207 30.50233387 30.62757988 35.421875 35.51953125 C36.41381507 36.5096007 37.40553049 37.49989527 38.39703369 38.49040222 C40.98449534 41.07408131 43.57494511 43.65474332 46.16607666 46.23474121 C48.80655846 48.86494638 51.44417343 51.49802306 54.08203125 54.13085938 C58.71176 58.75106559 63.34394829 63.36879086 67.97796631 67.98469543 C68.64523743 68.64974594 69.31250854 69.31479645 70 70 C70.58493225 70.54335495 71.1698645 71.0867099 71.77252197 71.64653015 C73 73 73 73 73 75 C65.18490141 75.1162459 57.37000826 75.20489217 49.55426025 75.25906086 C45.92437026 75.28506975 42.29507508 75.32030459 38.66552734 75.37719727 C35.15766623 75.43183357 31.65037439 75.46148592 28.14212036 75.47438622 C26.16348473 75.48801615 24.18507571 75.52699905 22.20678711 75.56648254 C15.81889384 75.56845887 10.99482965 75.33280054 5.64404297 71.66252136 C2.41388829 68.39606103 0.22057209 65.44499765 -0.48101807 60.8487854 C-0.47213562 59.72515594 -0.46325317 58.60152649 -0.45410156 57.44384766 C-0.45379944 56.16297272 -0.45349731 54.88209778 -0.45318604 53.56240845 C-0.43276412 52.17962002 -0.41190021 50.79683806 -0.390625 49.4140625 C-0.38315674 47.9877502 -0.37746657 46.56142758 -0.37347412 45.13510132 C-0.35826348 41.39645638 -0.31902257 37.65844143 -0.2746582 33.92004395 C-0.23360585 30.09912638 -0.21544196 26.27810618 -0.1953125 22.45703125 C-0.1525226 14.97106819 -0.08432835 7.48562265 0 0 Z " fill="#FAFAFA" transform="translate(182,14)"/>
<path d="M0 0 C1.38331261 -0.00503792 1.38331261 -0.00503792 2.79457092 -0.01017761 C5.84808696 -0.01968978 8.90154819 -0.02163072 11.95507812 -0.02270508 C14.07352725 -0.02591698 16.19197615 -0.029281 18.3104248 -0.03279114 C22.75236526 -0.03878273 27.19428626 -0.04063096 31.63623047 -0.04003906 C37.33619982 -0.03993733 43.03604493 -0.05360126 48.7359848 -0.07081127 C53.11106951 -0.08191205 57.48612396 -0.08395888 61.86122131 -0.08342934 C63.9632256 -0.08461191 66.0652306 -0.08904911 68.16722107 -0.0967617 C71.10245561 -0.10652475 74.03741761 -0.10369837 76.97265625 -0.09765625 C78.28188805 -0.10608551 78.28188805 -0.10608551 79.61756897 -0.11468506 C85.64385114 -0.08305432 85.64385114 -0.08305432 88.98632812 2.14526367 C88.11132812 6.02026367 88.11132812 6.02026367 86.98632812 7.14526367 C83.94230391 7.24057348 80.92101104 7.27078006 77.87670898 7.25878906 C76.92071304 7.25893509 75.9647171 7.25908112 74.97975159 7.25923157 C71.80353567 7.25853202 68.62737761 7.2507377 65.45117188 7.24291992 C63.2554172 7.24105589 61.0596621 7.23963192 58.86390686 7.2386322 C53.07212179 7.23480586 47.28036162 7.22497458 41.48858643 7.21392822 C35.58354021 7.2037166 29.67848999 7.19913512 23.7734375 7.1940918 C12.17772341 7.18335242 0.58202783 7.1662746 -11.01367188 7.14526367 C-12.07617188 5.27026367 -12.07617188 5.27026367 -13.01367188 3.14526367 C-10.73750296 -1.40707417 -4.44230949 -0.00230653 0 0 Z " fill="#111111" transform="translate(128.013671875,202.854736328125)"/>
<path d="M0 0 C33 0 66 0 100 0 C100.495 1.98 100.495 1.98 101 4 C99 6 99 6 97.20778465 6.24609566 C96.4795682 6.24425207 95.75135174 6.24240849 95.00106812 6.24050903 C93.74744225 6.24463303 93.74744225 6.24463303 92.4684906 6.24884033 C91.54995804 6.24164978 90.63142548 6.23445923 89.68505859 6.22705078 C88.71916306 6.22734283 87.75326752 6.22763489 86.75810242 6.22793579 C83.55479045 6.22653872 80.351709 6.21095974 77.1484375 6.1953125 C74.93169278 6.19158371 72.71494642 6.18873611 70.49819946 6.18673706 C64.65543084 6.17909004 58.81276118 6.15943237 52.97003174 6.1373291 C47.01128478 6.11689368 41.05252188 6.10774028 35.09375 6.09765625 C23.39578978 6.07618749 11.69790311 6.04203867 0 6 C-1.125 2.25 -1.125 2.25 0 0 Z " fill="#070707" transform="translate(116,158)"/>
<path d="M0 0 C33 0 66 0 100 0 C100.495 1.98 100.495 1.98 101 4 C98.29773542 6.70226458 96.2021173 6.23664397 92.5319519 6.24884033 C91.62277008 6.24164978 90.71358826 6.23445923 89.77685547 6.22705078 C88.8207135 6.22734283 87.86457153 6.22763489 86.87945557 6.22793579 C83.70860828 6.22653876 80.53799391 6.21095999 77.3671875 6.1953125 C75.17286304 6.1915837 72.97853692 6.1887361 70.78421021 6.18673706 C65.00062486 6.17909015 59.21713951 6.15943259 53.43359375 6.1373291 C47.53517001 6.11689343 41.63673016 6.10774023 35.73828125 6.09765625 C24.15881016 6.07618769 12.57941339 6.04203902 1 6 C-0.0625 4.125 -0.0625 4.125 -1 2 C-0.67 1.34 -0.34 0.68 0 0 Z " fill="#0F0F0F" transform="translate(116,250)"/>
<path d="M0 0 C2.375 1.125 2.375 1.125 4 3 C4.61459548 6.61074844 4.45961289 8.30138841 2.4375 11.375 C-0.92058549 13.61372366 -3.04745604 13.57491549 -7 13 C-9 11.375 -9 11.375 -10 9 C-9.87177883 5.85858144 -9.4995896 3.78882568 -7.8125 1.125 C-5.08827656 -0.56589731 -3.14066901 -0.38457172 0 0 Z " fill="#0A0A0A" transform="translate(79,246)"/>
<path d="M0 0 C2 2 2 2 2.375 4.875 C2 8 2 8 0.4375 10.375 C-2.92058549 12.61372366 -5.04745604 12.57491549 -9 12 C-11 10.375 -11 10.375 -12 8 C-11.92974155 4.55733615 -11.60090824 2.71646751 -9.375 0.0625 C-5.95249533 -1.46862051 -3.58323398 -0.8626304 0 0 Z " fill="#080808" transform="translate(81,201)"/>
<path d="M0 0 C2 2 2 2 2.375 4.875 C2 8 2 8 0.4375 10.375 C-2.92058549 12.61372366 -5.04745604 12.57491549 -9 12 C-11 10.375 -11 10.375 -12 8 C-11.92974155 4.55733615 -11.60090824 2.71646751 -9.375 0.0625 C-5.95249533 -1.46862051 -3.58323398 -0.8626304 0 0 Z " fill="#0A0A0A" transform="translate(81,155)"/>
</svg>
